<svg width="196" height="196" viewBox="0 0 196 196" fill="none" xmlns="http://www.w3.org/2000/svg">
<g filter="url(#filter0_di_4719_3)">
<rect x="6" y="5.62573" width="85.7946" height="85.7946" rx="42.8973" fill="white"/>
<rect x="4" y="3.62573" width="89.7946" height="89.7946" rx="44.8973" stroke="white" stroke-width="4"/>
</g>
<path d="M48.8748 0C60.5121 1.38773e-07 71.7674 4.15233 80.6165 11.7101C89.4655 19.2679 95.3274 29.7351 97.1479 41.2291C98.9684 52.7231 96.6279 64.4895 90.5475 74.4118C84.467 84.3342 75.0456 91.7614 63.978 95.3575C52.9103 98.9536 40.9226 98.4827 30.1712 94.0293C19.4198 89.5759 10.6102 81.4324 5.32703 71.0635C0.0438328 60.6946 -1.36625 48.7809 1.35042 37.4652C4.06708 26.1495 10.7322 16.1744 20.1469 9.33425L20.7215 10.1251C11.4951 16.8285 4.96324 26.604 2.30091 37.6934C-0.361424 48.7828 1.02045 60.4582 6.19799 70.6197C11.3755 80.7812 20.0089 88.7619 30.5453 93.1262C41.0817 97.4905 52.8296 97.9521 63.6759 94.4279C74.5222 90.9037 83.7552 83.625 89.714 73.9011C95.6728 64.1772 97.9665 52.6461 96.1824 41.382C94.3984 30.1179 88.6537 19.86 79.9816 12.4534C71.3096 5.04678 60.2793 0.977497 48.8748 0.977497V0Z" fill="#748BA1"/>
<path d="M41.8581 48.8152L40.876 48.8034H40.8688C40.755 48.8034 40.6435 48.8356 40.5472 48.8962C40.4509 48.9569 40.3737 49.0435 40.3246 49.1462L39.5798 50.7014C39.3715 51.1363 39.0411 51.5012 38.6289 51.7515C38.2167 52.0019 37.7405 52.1268 37.2585 52.1111C36.7765 52.0954 36.3095 51.9398 35.9145 51.6632C35.5194 51.3866 35.2134 51.0009 35.0338 50.5534C35.0324 50.55 35.0311 50.5466 35.0296 50.5433L34.409 49.0742C34.3628 48.9649 34.2855 48.8717 34.1866 48.8062C34.0878 48.7406 33.9718 48.7056 33.8532 48.7056H32.7521C32.7334 48.7056 32.715 48.7056 32.6964 48.7056C32.0543 48.7055 31.4191 48.8386 30.8311 49.0963C30.243 49.3541 29.7147 49.731 29.2797 50.2033C28.8447 50.6756 28.5123 51.2329 28.3035 51.8401C28.0948 52.4473 28.0142 53.0912 28.0669 53.7312L28 60.3399C27.9992 60.4197 28.0142 60.4988 28.0442 60.5727C28.0742 60.6466 28.1185 60.7138 28.1746 60.7705C28.2307 60.8272 28.2975 60.8722 28.3711 60.9029C28.4447 60.9336 28.5237 60.9494 28.6034 60.9494H45.7498C45.9088 60.9494 46.0613 60.8867 46.1743 60.7749C46.2873 60.6631 46.3516 60.5113 46.3532 60.3523L46.4198 53.9511C46.4883 53.3081 46.4217 52.6579 46.2244 52.0421C46.0271 51.4263 45.7034 50.8585 45.274 50.375C44.8446 49.8915 44.3189 49.503 43.7307 49.2344C43.1425 48.9658 42.5047 48.823 41.8581 48.8152ZM45.2172 53.8467C45.2149 53.8672 45.2136 53.8879 45.2133 53.9086L45.153 59.7425H29.2129L29.2738 53.7144C29.2738 53.6944 29.2732 53.6744 29.2715 53.6546C29.2288 53.1752 29.2872 52.6922 29.443 52.2368C29.5988 51.7815 29.8485 51.3639 30.1759 51.0111C30.5033 50.6583 30.9011 50.3782 31.3436 50.1889C31.7861 49.9996 32.2634 49.9054 32.7446 49.9122H33.4528L33.9156 51.0079C34.1832 51.6721 34.6383 52.2441 35.2254 52.6542C35.8125 53.0643 36.5062 53.2948 37.2219 53.3175C37.9377 53.3403 38.6446 53.1543 39.2566 52.7823C39.8685 52.4103 40.359 51.8683 40.6683 51.2224L41.2467 50.0146L41.8436 50.0218C42.3241 50.0276 42.7981 50.1342 43.235 50.3346C43.6718 50.535 44.0617 50.8247 44.3797 51.1852C44.6976 51.5456 44.9364 51.9687 45.0806 52.4271C45.2249 52.8855 45.2714 53.3691 45.2172 53.8467ZM37.1745 48.2619C37.1931 48.2619 37.2115 48.2619 37.2301 48.2619C38.412 48.2615 39.5462 47.7954 40.3868 46.9646C41.2274 46.1337 41.7068 45.0051 41.721 43.8233L41.7564 40.8817C41.7653 40.1055 41.5731 39.3403 41.1984 38.6605C40.8236 37.9807 40.2792 37.4096 39.6182 37.0027C39.8263 36.6155 39.9315 36.1813 39.9237 35.7417C39.9158 35.3021 39.7951 34.8719 39.5733 34.4924C39.3514 34.1128 39.0358 33.7966 38.6566 33.5741C38.2775 33.3515 37.8475 33.2301 37.408 33.2214C36.9684 33.2128 36.534 33.3172 36.1464 33.5246C35.7588 33.7321 35.4309 34.0356 35.1943 34.4061C34.9576 34.7766 34.8202 35.2017 34.795 35.6406C34.7698 36.0796 34.8578 36.5176 35.0505 36.9127C34.4309 37.2615 33.9034 37.753 33.5118 38.3465C33.1203 38.9401 32.876 39.6184 32.7992 40.3253C32.7862 40.4422 32.7677 41.489 32.7561 42.2131H32.7542L32.7361 43.7154C32.729 44.3054 32.8381 44.8909 33.0573 45.4387C33.2765 45.9864 33.6014 46.4857 34.0135 46.9078C34.4256 47.33 34.9169 47.6669 35.4592 47.8992C36.0015 48.1315 36.5843 48.2548 37.1742 48.2619H37.1745ZM39.5239 46.1209C39.0629 46.5712 38.4796 46.8759 37.8467 46.9972C37.2138 47.1185 36.5591 47.0509 35.9643 46.8029C35.3695 46.5549 34.8608 46.1374 34.5015 45.6024C34.1422 45.0675 33.9482 44.4386 33.9436 43.7942C35.065 43.2374 36.0976 42.5175 37.0079 41.6579C38.1225 42.1595 39.3122 42.474 40.5291 42.5888L40.5143 43.8089C40.5103 44.2406 40.4207 44.6672 40.2507 45.0641C40.0807 45.461 39.8337 45.8201 39.5239 46.1209ZM34.2015 39.6313C34.636 40.1114 35.1267 40.5375 35.6631 40.9004C35.7374 40.9511 35.8131 40.9998 35.8891 41.0484C35.2953 41.5714 34.6487 42.0312 33.9597 42.4204C33.9705 41.7367 33.99 40.6061 33.9992 40.4506C34.0313 40.1699 34.0993 39.8946 34.2015 39.6313ZM35.9975 35.771C35.9997 35.5607 36.0507 35.3539 36.1463 35.1667C36.242 34.9795 36.3797 34.817 36.5488 34.692C36.7178 34.567 36.9135 34.4829 37.1206 34.4463C37.3276 34.4097 37.5403 34.4217 37.7419 34.4812C37.9436 34.5406 38.1287 34.6461 38.2827 34.7892C38.4367 34.9323 38.5554 35.1092 38.6295 35.3059C38.7036 35.5026 38.7311 35.7139 38.7098 35.923C38.6885 36.1322 38.619 36.3336 38.5068 36.5113C38.1202 36.3996 37.7204 36.3405 37.3181 36.3355C36.9348 36.331 36.5525 36.375 36.1803 36.4664C36.0577 36.2553 35.9945 36.015 35.9975 35.771ZM37.2626 37.5422H37.3036C38.1747 37.5537 39.0057 37.9103 39.6142 38.5337C40.2228 39.1571 40.5592 39.9964 40.5497 40.8675L40.5436 41.3761C37.1752 40.9916 35.4945 39.3427 34.8772 38.5628C35.1844 38.2393 35.5544 37.9819 35.9646 37.8064C36.3748 37.6309 36.8165 37.541 37.2626 37.5422ZM61.8179 50.694C61.8739 50.75 61.9404 50.7945 62.0137 50.8248C62.0869 50.8551 62.1653 50.8707 62.2446 50.8707C62.3238 50.8707 62.4023 50.8551 62.4755 50.8248C62.5487 50.7945 62.6152 50.75 62.6713 50.694L63.5138 49.8514L64.3563 50.694C64.4694 50.8071 64.6229 50.8707 64.7829 50.8707C64.943 50.8707 65.0965 50.8071 65.2096 50.694C65.3228 50.5808 65.3864 50.4273 65.3864 50.2673C65.3864 50.1072 65.3228 49.9538 65.2096 49.8406L64.3671 48.998L65.2097 48.1554C65.3229 48.0423 65.3865 47.8888 65.3865 47.7287C65.3865 47.5687 65.3229 47.4152 65.2097 47.3021C65.0965 47.1889 64.9431 47.1253 64.783 47.1253C64.623 47.1253 64.4695 47.1889 64.3563 47.3021L63.5138 48.1446L62.6713 47.3021C62.5581 47.1889 62.4046 47.1253 62.2446 47.1253C62.0845 47.1253 61.9311 47.1889 61.8179 47.3021C61.7047 47.4152 61.6412 47.5687 61.6412 47.7287C61.6412 47.8888 61.7047 48.0423 61.8179 48.1554L62.6604 48.998L61.8178 49.8406C61.7618 49.8966 61.7173 49.9632 61.687 50.0364C61.6567 50.1096 61.6411 50.1881 61.6411 50.2673C61.6411 50.3465 61.6567 50.425 61.6871 50.4982C61.7174 50.5714 61.7619 50.6379 61.8179 50.694ZM62.4214 36.8747C62.5296 36.9921 62.68 37.0618 62.8395 37.0685C62.9991 37.0752 63.1548 37.0184 63.2725 36.9106L66.0221 34.3917C66.0806 34.3382 66.1279 34.2737 66.1614 34.2018C66.1949 34.13 66.2139 34.0523 66.2174 33.9732C66.2209 33.894 66.2087 33.8149 66.1816 33.7405C66.1545 33.666 66.113 33.5976 66.0595 33.5392C66.006 33.4807 65.9415 33.4334 65.8697 33.3999C65.7978 33.3664 65.7201 33.3474 65.641 33.3439C65.5618 33.3404 65.4827 33.3526 65.4083 33.3797C65.3338 33.4068 65.2654 33.4483 65.207 33.5018L62.9005 35.6145L61.8562 34.4822C61.8024 34.424 61.7378 34.3769 61.6659 34.3436C61.5939 34.3104 61.5162 34.2916 61.437 34.2884C61.3578 34.2852 61.2788 34.2976 61.2044 34.325C61.13 34.3523 61.0618 34.394 61.0035 34.4478C60.9453 34.5015 60.8982 34.5662 60.8649 34.6381C60.8317 34.71 60.8129 34.7878 60.8097 34.867C60.8065 34.9461 60.819 35.0252 60.8463 35.0995C60.8737 35.1739 60.9154 35.2422 60.9691 35.3004L62.4214 36.8747ZM62.4214 64.4582C62.5296 64.5756 62.68 64.6453 62.8395 64.652C62.9991 64.6587 63.1548 64.6019 63.2725 64.4941L66.0222 61.9752C66.0807 61.9216 66.128 61.8571 66.1615 61.7853C66.195 61.7135 66.214 61.6358 66.2175 61.5566C66.2209 61.4775 66.2088 61.3984 66.1817 61.3239C66.1546 61.2495 66.1131 61.1811 66.0596 61.1226C66.0061 61.0642 65.9416 61.0169 65.8697 60.9834C65.7979 60.9499 65.7202 60.9308 65.6411 60.9274C65.5619 60.9239 65.4828 60.9361 65.4083 60.9632C65.3339 60.9902 65.2655 61.0317 65.207 61.0853L62.9005 63.198L61.8562 62.0657C61.7477 61.9481 61.5969 61.8783 61.437 61.8719C61.2771 61.8654 61.1212 61.9227 61.0035 62.0312C60.8859 62.1397 60.8162 62.2905 60.8097 62.4504C60.8033 62.6103 60.8606 62.7662 60.9691 62.8839L62.4214 64.4582Z" fill="#202020"/>
<path d="M57.3262 35.6646C57.4443 37.2535 58.1692 38.736 59.3505 39.8051C60.5319 40.8741 62.0792 41.4477 63.6719 41.4071C65.2646 41.3665 66.7807 40.7147 67.906 39.5868C69.0313 38.4589 69.6796 36.9414 69.7166 35.3486C69.7535 33.7557 69.1764 32.2097 68.1046 31.0309C67.0329 29.852 65.5487 29.1305 63.9596 29.0161C62.3704 28.9016 60.7982 29.4028 59.5685 30.4158C58.3388 31.4289 57.546 32.8762 57.3542 34.4579H54.2733C54.1133 34.4579 53.9598 34.5214 53.8467 34.6346C53.7335 34.7478 53.6699 34.9012 53.6699 35.0613V48.3933H49.6765L51.2577 46.8122C51.3137 46.7562 51.3581 46.6897 51.3885 46.6165C51.4188 46.5433 51.4344 46.4648 51.4344 46.3856C51.4344 46.3063 51.4188 46.2279 51.3885 46.1546C51.3581 46.0814 51.3137 46.0149 51.2577 45.9589C51.2016 45.9029 51.1351 45.8584 51.0619 45.8281C50.9887 45.7978 50.9102 45.7821 50.831 45.7821C50.7517 45.7821 50.6733 45.7978 50.6001 45.8281C50.5269 45.8584 50.4603 45.9029 50.4043 45.9589L47.8184 48.5448C47.7623 48.6009 47.7179 48.6674 47.6875 48.7406C47.6572 48.8138 47.6416 48.8923 47.6416 48.9715C47.6416 49.0508 47.6572 49.1292 47.6875 49.2024C47.7179 49.2756 47.7623 49.3422 47.8184 49.3982L50.4043 51.9842C50.5175 52.0973 50.6709 52.1609 50.831 52.1609C50.991 52.1609 51.1445 52.0973 51.2577 51.9842C51.3708 51.871 51.4344 51.7175 51.4344 51.5575C51.4344 51.3974 51.3708 51.244 51.2577 51.1308L49.7269 49.6001H53.6699V62.9321C53.6699 63.0921 53.7335 63.2456 53.8467 63.3588C53.9598 63.4719 54.1133 63.5355 54.2733 63.5355H57.354C57.545 65.1182 58.3375 66.5668 59.5674 67.5812C60.7973 68.5955 62.3702 69.0979 63.9604 68.9842C65.5505 68.8704 67.036 68.1494 68.109 66.9703C69.182 65.7913 69.7603 64.2446 69.7241 62.6508C69.6879 61.057 69.04 59.5382 67.9145 58.4091C66.7891 57.28 65.2724 56.6271 63.6788 56.5857C62.0851 56.5443 60.5366 57.1176 59.354 58.1867C58.1715 59.2559 57.4455 60.739 57.3266 62.3287H54.8767V49.6H57.3374C57.4924 51.186 58.2515 52.6516 59.4575 53.6932C60.6636 54.7348 62.2241 55.2725 63.8157 55.1949C65.4074 55.1174 66.9082 54.4305 68.0073 53.2766C69.1063 52.1226 69.7194 50.5902 69.7194 48.9966C69.7194 47.403 69.1063 45.8706 68.0073 44.7166C66.9082 43.5627 65.4074 42.8758 63.8157 42.7983C62.2241 42.7207 60.6636 43.2584 59.4575 44.3C58.2515 45.3416 57.4924 46.8072 57.3374 48.3932H54.8767V35.6646H57.3262ZM63.5138 30.2068C64.5026 30.2068 65.4692 30.5 66.2914 31.0494C67.1135 31.5987 67.7543 32.3796 68.1327 33.2931C68.5111 34.2066 68.6101 35.2119 68.4172 36.1817C68.2243 37.1515 67.7482 38.0423 67.049 38.7415C66.3498 39.4407 65.4589 39.9169 64.4891 40.1098C63.5193 40.3027 62.5141 40.2037 61.6006 39.8253C60.687 39.4469 59.9062 38.8061 59.3568 37.9839C58.8075 37.1617 58.5143 36.1951 58.5143 35.2063C58.5158 33.8808 59.043 32.6101 59.9803 31.6728C60.9175 30.7355 62.1883 30.2083 63.5138 30.2068ZM63.5138 57.7903C64.5026 57.7903 65.4692 58.0835 66.2914 58.6329C67.1135 59.1822 67.7543 59.963 68.1327 60.8766C68.5111 61.7901 68.6101 62.7954 68.4172 63.7652C68.2243 64.735 67.7482 65.6258 67.049 66.325C66.3498 67.0242 65.4589 67.5003 64.4891 67.6932C63.5193 67.8862 62.5141 67.7871 61.6006 67.4087C60.687 67.0303 59.9062 66.3895 59.3568 65.5674C58.8075 64.7452 58.5143 63.7786 58.5143 62.7898C58.5158 61.4643 59.043 60.1936 59.9803 59.2563C60.9175 58.319 62.1883 57.7918 63.5138 57.7903ZM63.5138 43.9986C64.5026 43.9986 65.4692 44.2918 66.2914 44.8411C67.1135 45.3905 67.7543 46.1713 68.1327 47.0848C68.5111 47.9984 68.6101 49.0036 68.4172 49.9734C68.2243 50.9432 67.7482 51.8341 67.049 52.5333C66.3498 53.2324 65.4589 53.7086 64.4891 53.9015C63.5193 54.0944 62.5141 53.9954 61.6006 53.617C60.687 53.2386 59.9062 52.5978 59.3568 51.7756C58.8075 50.9535 58.5143 49.9869 58.5143 48.9981C58.5158 47.6726 59.043 46.4018 59.9803 45.4645C60.9175 44.5273 62.1883 44.0001 63.5138 43.9986Z" fill="#202020"/>
<defs>
<filter id="filter0_di_4719_3" x="2" y="1.62573" width="193.795" height="193.795" filterUnits="userSpaceOnUse" color-interpolation-filters="sRGB">
<feFlood flood-opacity="0" result="BackgroundImageFix"/>
<feColorMatrix in="SourceAlpha" type="matrix" values="0 0 0 0 0 0 0 0 0 0 0 0 0 0 0 0 0 0 127 0" result="hardAlpha"/>
<feOffset dx="50" dy="50"/>
<feGaussianBlur stdDeviation="25"/>
<feComposite in2="hardAlpha" operator="out"/>
<feColorMatrix type="matrix" values="0 0 0 0 0.95 0 0 0 0 0.95 0 0 0 0 0.95 0 0 0 1 0"/>
<feBlend mode="normal" in2="BackgroundImageFix" result="effect1_dropShadow_4719_3"/>
<feBlend mode="normal" in="SourceGraphic" in2="effect1_dropShadow_4719_3" result="shape"/>
<feColorMatrix in="SourceAlpha" type="matrix" values="0 0 0 0 0 0 0 0 0 0 0 0 0 0 0 0 0 0 127 0" result="hardAlpha"/>
<feOffset dx="30" dy="30"/>
<feGaussianBlur stdDeviation="25"/>
<feComposite in2="hardAlpha" operator="arithmetic" k2="-1" k3="1"/>
<feColorMatrix type="matrix" values="0 0 0 0 0.968627 0 0 0 0 0.968627 0 0 0 0 0.968627 0 0 0 1 0"/>
<feBlend mode="normal" in2="shape" result="effect2_innerShadow_4719_3"/>
</filter>
</defs>
</svg>
