<svg width="196" height="196" viewBox="0 0 196 196" fill="none" xmlns="http://www.w3.org/2000/svg">
<g filter="url(#filter0_di_2655_76380)">
<rect x="6" y="6" width="85.7946" height="85.7946" rx="42.8973" fill="white"/>
<rect x="4" y="4" width="89.7946" height="89.7946" rx="44.8973" stroke="white" stroke-width="4"/>
</g>
<circle cx="48.8748" cy="48.8748" r="48.3748" stroke="#778CA3" stroke-dasharray="4 4"/>
<path d="M48.8748 0C60.5121 1.38773e-07 71.7674 4.15233 80.6165 11.7101C89.4655 19.2679 95.3274 29.7351 97.1479 41.2291C98.9684 52.7231 96.6279 64.4895 90.5475 74.4118C84.467 84.3342 75.0456 91.7614 63.978 95.3575C52.9103 98.9536 40.9226 98.4827 30.1712 94.0293C19.4198 89.5759 10.6102 81.4324 5.32703 71.0635C0.0438328 60.6946 -1.36625 48.7809 1.35042 37.4652C4.06708 26.1495 10.7322 16.1744 20.1469 9.33425L20.7215 10.1251C11.4951 16.8285 4.96324 26.604 2.30091 37.6934C-0.361424 48.7828 1.02045 60.4582 6.19799 70.6197C11.3755 80.7812 20.0089 88.7619 30.5453 93.1262C41.0817 97.4905 52.8296 97.9521 63.6759 94.4279C74.5222 90.9037 83.7552 83.625 89.714 73.9011C95.6728 64.1772 97.9665 52.6461 96.1824 41.382C94.3984 30.1179 88.6537 19.86 79.9816 12.4534C71.3096 5.04678 60.2793 0.977497 48.8748 0.977497V0Z" fill="#748BA1"/>
<path d="M29.6504 63.5267H34.1708C34.5832 64.3585 35.1876 65.0803 35.9342 65.6322C36.6807 66.1841 37.548 66.5504 38.4642 66.7007C39.3804 66.851 40.3192 66.781 41.203 66.4966C42.0867 66.2121 42.8901 65.7214 43.5466 65.0648C44.2031 64.4083 44.6939 63.605 44.9784 62.7212C45.2628 61.8374 45.3328 60.8986 45.1825 59.9824C45.0322 59.0662 44.6659 58.199 44.114 57.4524C43.562 56.7058 42.8403 56.1014 42.0084 55.6891V55.0712C42.0074 54.0365 41.5959 53.0445 40.8643 52.3128C40.1326 51.5812 39.1406 51.1697 38.1059 51.1687H37.5543C38.1783 50.7327 38.6469 50.1092 38.8921 49.3887C39.1373 48.6682 39.1463 47.8882 38.9178 47.1622C38.6893 46.4362 38.2352 45.802 37.6216 45.3518C37.0079 44.9016 36.2666 44.6588 35.5055 44.6588C34.7444 44.6588 34.0031 44.9016 33.3895 45.3518C32.7758 45.802 32.3217 46.4362 32.0932 47.1622C31.8647 47.8882 31.8737 48.6682 32.1189 49.3887C32.3641 50.1092 32.8328 50.7327 33.4567 51.1687H32.9025C31.8678 51.1697 30.8758 51.5812 30.1442 52.3128C29.4125 53.0445 29.001 54.0365 29 55.0712V62.8762C29 63.0487 29.0685 63.2142 29.1905 63.3362C29.3125 63.4581 29.4779 63.5267 29.6504 63.5267ZM43.9597 60.925C43.9597 61.8255 43.6927 62.7057 43.1924 63.4545C42.6921 64.2032 41.981 64.7868 41.1491 65.1314C40.3171 65.476 39.4017 65.5661 38.5185 65.3904C37.6353 65.2148 36.8241 64.7811 36.1873 64.1444C35.5506 63.5077 35.117 62.6964 34.9413 61.8132C34.7656 60.93 34.8558 60.0146 35.2004 59.1826C35.545 58.3507 36.1285 57.6396 36.8773 57.1393C37.626 56.6391 38.5063 56.372 39.4067 56.372C40.6138 56.3734 41.7711 56.8535 42.6246 57.7071C43.4782 58.5606 43.9583 59.7179 43.9597 60.925ZM33.2277 48.2418C33.2277 47.7915 33.3613 47.3514 33.6114 46.977C33.8615 46.6027 34.2171 46.3109 34.633 46.1386C35.049 45.9663 35.5067 45.9212 35.9483 46.009C36.3899 46.0969 36.7956 46.3137 37.1139 46.6321C37.4323 46.9504 37.6491 47.356 37.7369 47.7976C37.8248 48.2392 37.7797 48.697 37.6074 49.1129C37.4351 49.5289 37.1433 49.8844 36.769 50.1346C36.3946 50.3847 35.9545 50.5182 35.5042 50.5182C34.9005 50.5182 34.3214 50.2784 33.8945 49.8515C33.4676 49.4245 33.2277 48.8455 33.2277 48.2418ZM30.3008 55.0712C30.3008 54.3812 30.5749 53.7194 31.0629 53.2315C31.5508 52.7436 32.2125 52.4695 32.9025 52.4695H38.1059C38.7959 52.4695 39.4577 52.7436 39.9456 53.2315C40.4335 53.7194 40.7076 54.3812 40.7076 55.0712V55.2221C39.7423 54.9982 38.7359 55.0239 37.7833 55.2965C36.8306 55.5692 35.9631 56.0799 35.2624 56.7806C34.5617 57.4813 34.051 58.3488 33.7783 59.3015C33.5056 60.2541 33.48 61.2605 33.7038 62.2258H30.3008V55.0712ZM66.074 42.0302V41.4123C66.073 40.3776 65.6615 39.3856 64.9299 38.654C64.1982 37.9223 63.2062 37.5108 62.1715 37.5098H61.6199C62.2438 37.0739 62.7125 36.4504 62.9577 35.7298C63.2029 35.0093 63.2119 34.2294 62.9834 33.5034C62.7549 32.7774 62.3008 32.1432 61.6872 31.693C61.0735 31.2427 60.3322 31 59.5711 31C58.81 31 58.0687 31.2427 57.4551 31.693C56.8414 32.1432 56.3873 32.7774 56.1588 33.5034C55.9303 34.2294 55.9393 35.0093 56.1845 35.7298C56.4297 36.4504 56.8984 37.0739 57.5223 37.5098H56.9681C55.9334 37.5108 54.9414 37.9223 54.2098 38.654C53.4781 39.3856 53.0666 40.3776 53.0656 41.4123V49.2174C53.0656 49.3899 53.1341 49.5553 53.2561 49.6773C53.3781 49.7993 53.5435 49.8678 53.716 49.8678H58.2364C58.6488 50.6997 59.2532 51.4214 59.9998 51.9733C60.7463 52.5253 61.6136 52.8915 62.5298 53.0419C63.446 53.1922 64.3848 53.1222 65.2685 52.8377C66.1523 52.5533 66.9557 52.0625 67.6122 51.406C68.2687 50.7495 68.7595 49.9461 69.0439 49.0623C69.3284 48.1786 69.3984 47.2397 69.2481 46.3236C69.0977 45.4074 68.7315 44.5401 68.1795 43.7936C67.6276 43.047 66.9059 42.4426 66.074 42.0302ZM57.2933 34.5829C57.2933 34.1327 57.4268 33.6925 57.677 33.3182C57.9271 32.9438 58.2827 32.652 58.6986 32.4797C59.1146 32.3074 59.5723 32.2623 60.0139 32.3502C60.4555 32.438 60.8611 32.6548 61.1795 32.9732C61.4979 33.2916 61.7147 33.6972 61.8025 34.1388C61.8904 34.5804 61.8453 35.0381 61.673 35.4541C61.5007 35.8701 61.2089 36.2256 60.8345 36.4757C60.4602 36.7259 60.02 36.8594 59.5698 36.8594C58.966 36.8594 58.387 36.6195 57.9601 36.1926C57.5332 35.7657 57.2933 35.1867 57.2933 34.5829ZM57.7694 48.567H54.3664V41.4123C54.3664 40.7223 54.6405 40.0606 55.1284 39.5727C55.6164 39.0848 56.2781 38.8107 56.9681 38.8107H62.1715C62.8615 38.8107 63.5232 39.0848 64.0112 39.5727C64.4991 40.0606 64.7732 40.7223 64.7732 41.4123V41.5632C63.8079 41.3394 62.8015 41.365 61.8488 41.6377C60.8962 41.9104 60.0287 42.4211 59.328 43.1218C58.6273 43.8224 58.1166 44.69 57.8439 45.6426C57.5712 46.5953 57.5456 47.6017 57.7694 48.567ZM63.4723 51.8191C62.5718 51.8191 61.6916 51.552 60.9428 51.0518C60.1941 50.5515 59.6106 49.8404 59.266 49.0085C58.9214 48.1765 58.8312 47.2611 59.0069 46.3779C59.1825 45.4947 59.6162 44.6834 60.2529 44.0467C60.8896 43.41 61.7009 42.9763 62.5841 42.8007C63.4673 42.625 64.3827 42.7151 65.2147 43.0598C66.0466 43.4044 66.7577 43.9879 67.258 44.7366C67.7583 45.4854 68.0253 46.3656 68.0253 47.2661C68.0239 48.4732 67.5438 49.6305 66.6902 50.484C65.8367 51.3376 64.6794 51.8177 63.4723 51.8191Z" fill="#202020"/>
<path d="M37.1072 61.3774L36.1875 62.2971L37.5677 63.6767C37.6897 63.7986 37.8551 63.8671 38.0275 63.8671C38.2 63.8671 38.3654 63.7986 38.4874 63.6767L42.6267 59.5374L41.707 58.6177L38.0275 62.2971L37.1072 61.3774Z" fill="#202020"/>
<path d="M65.3127 45L63.4726 46.84L61.6326 45L60.7129 45.9197L62.5529 47.7597L60.7129 49.5998L61.6326 50.5195L63.4726 48.6794L65.3127 50.5195L66.2324 49.5998L64.3923 47.7597L66.2324 45.9197L65.3127 45Z" fill="#202020"/>
<path d="M57.8674 48L57 48.9695L58.4537 50.2701L59.3211 49.3007L57.8674 48Z" fill="#202020"/>
<path d="M49.1634 60.9186C48.5389 60.9188 47.9152 60.8784 47.296 60.7977L47.1282 62.0894C47.8031 62.1765 48.4829 62.2199 49.1634 62.2195C51.6997 62.219 54.1977 61.6008 56.4415 60.4184C58.6853 59.2359 60.6075 57.5248 62.0417 55.433L60.9685 54.6967C59.654 56.6145 57.8921 58.1832 55.8352 59.2673C53.7784 60.3514 51.4884 60.9182 49.1634 60.9186ZM53.9114 31.7355C51.9015 31.0961 49.783 30.8701 47.6835 31.0712C45.5839 31.2722 43.5468 31.8962 41.6948 32.9055C39.8428 33.9148 38.2143 35.2885 36.9073 36.9439C35.6003 38.5993 34.6419 40.5021 34.0898 42.5377L35.3458 42.876C35.8522 41.0096 36.7312 39.2651 37.9297 37.7474C39.1283 36.2298 40.6217 34.9705 42.3199 34.0454C44.0181 33.1203 45.8859 32.5485 47.811 32.3644C49.7361 32.1804 51.6785 32.388 53.5212 32.9746L53.9114 31.7355Z" fill="#202020"/>
<defs>
<filter id="filter0_di_2655_76380" x="2" y="2" width="193.795" height="193.795" filterUnits="userSpaceOnUse" color-interpolation-filters="sRGB">
<feFlood flood-opacity="0" result="BackgroundImageFix"/>
<feColorMatrix in="SourceAlpha" type="matrix" values="0 0 0 0 0 0 0 0 0 0 0 0 0 0 0 0 0 0 127 0" result="hardAlpha"/>
<feOffset dx="50" dy="50"/>
<feGaussianBlur stdDeviation="25"/>
<feComposite in2="hardAlpha" operator="out"/>
<feColorMatrix type="matrix" values="0 0 0 0 0.95 0 0 0 0 0.95 0 0 0 0 0.95 0 0 0 1 0"/>
<feBlend mode="normal" in2="BackgroundImageFix" result="effect1_dropShadow_2655_76380"/>
<feBlend mode="normal" in="SourceGraphic" in2="effect1_dropShadow_2655_76380" result="shape"/>
<feColorMatrix in="SourceAlpha" type="matrix" values="0 0 0 0 0 0 0 0 0 0 0 0 0 0 0 0 0 0 127 0" result="hardAlpha"/>
<feOffset dx="30" dy="30"/>
<feGaussianBlur stdDeviation="25"/>
<feComposite in2="hardAlpha" operator="arithmetic" k2="-1" k3="1"/>
<feColorMatrix type="matrix" values="0 0 0 0 0.968627 0 0 0 0 0.968627 0 0 0 0 0.968627 0 0 0 1 0"/>
<feBlend mode="normal" in2="shape" result="effect2_innerShadow_2655_76380"/>
</filter>
</defs>
</svg>
